<svg width="55" height="55" viewBox="0 0 55 55" fill="none" xmlns="http://www.w3.org/2000/svg">
<circle cx="27.5" cy="26.5" r="9.5" fill="#2A1103"/>
<path d="M37 53.5V44.5C43.3123 43.6202 45.5 41 45.5 36H55C52.5 44.5 46.5 51 37 53.5Z" fill="#2A1103"/>
<path d="M1.10645 36.795L10.0994 36.4392C11.228 42.7118 13.9327 44.7942 18.9288 44.5965L19.3043 54.0891C10.7122 51.9271 3.98005 46.1887 1.10645 36.795Z" fill="#2A1103"/>
<path d="M17.9436 1.06394e-05L18.6547 8.97188C12.4316 10.3476 10.4577 13.1325 10.8527 18.1168L1.38243 18.8673C3.2031 10.1964 8.67083 3.24272 17.9436 1.06394e-05Z" fill="#2A1103"/>
<path d="M54.5624 17.9999L45.5624 18.0312C44.6607 11.722 42.0329 9.54344 37.0329 9.56084L36.9999 0.0609015C45.5085 2.53131 52.0293 8.50865 54.5624 17.9999Z" fill="#2A1103"/>
</svg>
