<svg width="392" height="169" viewBox="0 0 392 169" fill="none" xmlns="http://www.w3.org/2000/svg">
<path d="M97.2532 68.3171L98.9006 69.0796L99.5584 70.2483L98.7958 71.2233L97.207 69.8604L97.2532 68.3171ZM140.919 64.2948L140.264 65.7262L136.564 64.9114L136.657 64.4364L140.919 64.2948ZM43.2266 52.0062L44.4598 52.5023L48.7274 52.6525L53.6595 53.4636L54.5137 53.0672L62.7667 53.4508L68.1494 55.2843L68.8494 54.0686L70.9292 53.927L73.9124 54.3763L74.6604 54.9118L76.7319 54.5323L79.5867 55.2122L81.0784 54.7246L87.8724 55.0057L89.158 54.6209L90.9519 55.7483L95.5352 56.6732L96.8528 57.5669L99.5893 58.2664L102.089 58.4395L105.428 57.5813L107.406 57.7587L113.414 58.9124L116.535 58.6928L121.37 59.0583L125.085 59.8798L126.104 59.4889L130.665 61.3571L131.964 61.54L131.186 63.4295L129.918 64.1211L126.902 63.3451L124.391 64.0272L122.024 63.476L120.438 65.0689L119.42 64.6132L117.383 66.2517L115.526 66.018L110.071 66.3465L109.835 67.7115L107.759 66.9047L104.214 67.3989L102.274 66.5688L99.8723 67.0444L99.0973 66.2945L96.1054 65.9999L93.0772 67.5506L90.6392 67.2799L90.0573 66.6309L87.2189 66.4667L85.4064 65.4775L82.6294 64.9707L81.0708 65.3127L77.9189 63.6858L74.9397 63.5565L74.5248 62.8117L70.8409 61.5109L69.9826 62.0358L69.0574 60.1713L67.3762 60.9371L66.606 59.8202L65.7721 60.43L63.6948 59.4941L62.9893 58.4609L60.3095 58.2762L58.0176 56.839L55.6924 57.7116L54.6264 56.639L52.3066 57.1993L51.5749 56.3588L49.5355 56.3313L48.243 55.3749L46.5262 56.3025L46.0007 55.3532L44.8038 56.2781L43.3062 56.3579L42.2258 53.8083L41.2632 54.0077L41.1159 52.6607L43.2266 52.0062ZM20.7735 44.9177L23.0755 46.2442L23.5909 45.5967L26.8347 45.3881L31.9788 45.9803L33.7677 47.2392L29.7379 48.1647L28.5294 47.8925L23.1596 47.8591L20.9735 46.7767L19.4832 47.1838L19.3934 46.0668L20.7735 44.9177Z" fill="#5EA9C9" stroke="white" stroke-width="0.266667" stroke-miterlimit="3.99973" stroke-linecap="round" stroke-linejoin="round"/>
<path d="M90.553 32.4206L89.0118 33.9321L88.231 33.2042L90.553 32.4206ZM96.7583 31.7615L95.3432 33.1895L94.7559 32.6802L96.7583 31.7615ZM114.201 30.3481L115.004 32.0428L113.594 32.2817L112.929 30.5105L114.201 30.3481ZM4.19988 16.5504L5.93056 16.763L8.70461 17.8307L9.76432 18.7333L10.3222 21.6248L12.0191 20.8507L12.1042 24.0781L10.2586 26.951L6.03566 27.6621L2.85431 25.7071L1.41165 22.9785L0.285019 21.9209L0.610862 19.9952L0.133362 19.208L0.990531 18.0194L3.43291 16.5556L4.19988 16.5504ZM57.9446 9.76198L59.8455 9.30075L63.9305 6.45142L63.9327 3.58862L67.8494 4.64015L70.5452 7.29129L71.6024 9.08421L72.3367 8.85054L74.643 10.2465L78.6419 11.8779L79.5438 12.5826L79.1143 14.2993L80.118 14.2128L82.1055 15.8139L82.7011 18.2485L85.9356 20.0118L86.3505 21.69L87.2164 22.5574L92.5547 21.1401L94.7272 21.9151L95.0265 23.1275L97.2943 24.2359L99.0726 23.5722L100.705 24.0986L100.326 24.9816L96.1888 27.663L93.278 28.7311L87.2931 29.8349L84.894 30.8127L80.0846 29.7165L78.5459 28.0236L76.3439 27.76L72.8647 27.9753L70.8438 28.7096L70.3951 29.6581L67.3566 29.0498L65.4132 27.4238L63.836 25.374L64.8815 24.9274L65.3146 21.8986L63.9254 20.3464L62.9246 18.355L62.9573 16.9034L62.2107 16.1008L61.6143 12.9924L60.0262 10.1565L57.9446 9.76198Z" fill="#5EA9C9" stroke="white" stroke-width="0.266667" stroke-miterlimit="3.99973" stroke-linecap="round" stroke-linejoin="round"/>
<path d="M63.9327 3.58853L63.9305 6.45133L59.8454 9.30066L57.9445 9.76189L53.7889 14.2191L51.8346 12.4396L49.3657 11.1752L48.2674 9.77076L46.5967 8.68926L42.7179 7.39825L44.6715 9.7622L47.6281 12.2029L46.7058 12.6036L45.2992 12.0194L45.385 11.1171L43.7543 10.4235L44.1649 9.88148L39.6463 7.14195L37.5131 4.24887L38.08 3.8427L36.7425 2.50734L36.1879 0.585658L38.0964 0.133301L39.57 1.7944L40.5984 1.25395L42.4655 1.43593L43.6616 2.27703L44.5024 1.74026L47.3335 2.49113L52.2724 2.73581L53.7773 2.29508L56.1604 3.9158L57.1256 5.50777L58.2922 4.73549L59.7247 6.02283L61.0579 6.27546L62.3816 5.42916L63.9327 3.58853Z" fill="#5EA9C9" stroke="white" stroke-width="0.266667" stroke-miterlimit="3.99973" stroke-linecap="round" stroke-linejoin="round"/>
<path d="M335.326 89.7786L338.385 92.5167L340.668 93.4727L341.847 94.9309L342.86 95.2193L344.442 94.4664L345.514 95.767L346.958 95.853L347.298 96.6234L350.636 97.829L352.436 96.1142L351.258 94.6388L353.084 94.5009L354.775 95.2471L356.026 95.1526L357.512 96.0909L358.969 96.0472L360.324 96.8481L361.982 96.0135L363.096 97.094L365.263 96.9619L366.475 97.4292L367.156 96.6576L369.114 97.478L368.022 100.198L364.477 99.3387L362.523 102.737L364.921 104.154L367.418 103.649L367.18 105.585L366.104 109.584L361.111 109.859L354.612 108.068L353.14 110.177L353.978 111.219L352.844 113.278L351.459 116.002L351.679 126.358L351.239 133.029L351.915 134.384L348.848 136.656L350.02 137.388L349.038 139.881L348.73 142.219L348.041 142.651L350.6 145.254L352.077 146.266L351.01 147.805L351.94 150.057L350.022 152.228L351.833 152.568L352.413 154.136L351.581 154.429L352.549 157.452L353.06 158.934L350.212 162.43L354.075 164.873L348.602 165.433L345.324 161.171L341.706 161.515L339.726 162.971L338.768 163.584L338.227 163.272L337.934 163.244L337.505 163.262L337.26 163.287L337.199 163.284L334.982 162.291L334.404 162.612L332.861 160.762L331.318 161.957L330.06 160.161L327.456 161.063L326.08 160.271L326.914 159.296L326.271 158.689L323.508 159.474L322.027 159.291L320.037 157.302L318.933 157.607L316.567 156.471L315.138 156.43L312.246 155.571L310.618 154.078L309.996 155.076L307.682 155.391L307.304 154.358L305.076 155.806L303.219 155.551L302.569 154.62L304.435 153.339L303.28 152.758L301.036 154.623L300.003 154.86L297.546 153.896L297.539 152.746L295.483 150.598L294.735 150.687L293.909 148.909L295.712 147.876L296.915 145.31L296.886 144.246L297.974 142.657L296.952 141.399L295.942 136.907L296.269 135.355L297.601 133.885L296.982 132.733L295.504 122.717L294.931 118.081L292.956 104.67L292.841 101.744L292.297 98.2647L314.667 95.5532L326.842 98.3688L335.896 95.0705L335.326 89.7786Z" fill="#5EA9C9"/>
<path d="M366.104 109.584L367.18 105.585L367.418 103.649L364.921 104.154L362.523 102.737L364.477 99.3387L368.022 100.198L369.114 97.478L367.156 96.6576L366.475 97.4292L365.263 96.9619L363.096 97.094L361.983 96.0135L360.324 96.8481L358.969 96.0472L357.512 96.0909L356.026 95.1526L354.775 95.2471L353.084 94.5009L351.258 94.6388L352.436 96.1142L350.636 97.829L347.298 96.6234L346.958 95.853L345.514 95.767L344.442 94.4664L342.86 95.2193L341.847 94.9309L340.668 93.4727L338.385 92.5167L335.326 89.7786L335.896 95.0705L326.842 98.3688L314.667 95.5532L292.297 98.2647L292.841 101.744L292.956 104.67L294.931 118.081L295.504 122.717L296.982 132.733L297.601 133.885L296.269 135.355L295.942 136.907L296.952 141.399L297.974 142.657L296.886 144.246L296.915 145.31L295.712 147.876L293.909 148.909L294.735 150.687L295.483 150.598L297.539 152.746L297.546 153.896L300.003 154.86L301.036 154.623L303.28 152.758L304.435 153.339L302.569 154.62L303.219 155.551L305.076 155.806L307.304 154.358L307.682 155.391L309.996 155.076L310.618 154.078L312.246 155.571L315.138 156.43L316.567 156.471L318.933 157.607L320.037 157.302L322.027 159.291L323.508 159.474L326.271 158.689L326.914 159.296L326.08 160.271L327.456 161.063L330.06 160.161L331.318 161.957L332.861 160.762L334.404 162.612L334.982 162.291L337.199 163.284L337.26 163.287L337.505 163.262L337.934 163.244L338.227 163.272L338.768 163.584L339.726 162.971L341.706 161.515L345.324 161.171L348.602 165.433L354.075 164.873L350.212 162.43L353.06 158.934L352.549 157.452L351.581 154.429L352.413 154.136L351.833 152.568L350.022 152.228L351.94 150.057L351.01 147.805L352.077 146.266L350.6 145.254L348.041 142.651L348.73 142.219L349.038 139.881L350.02 137.388L348.848 136.656L351.915 134.384L351.239 133.029L351.679 126.358L351.459 116.002L352.844 113.278L353.978 111.219L353.14 110.177L354.612 108.068L361.111 109.859L366.104 109.584ZM366.104 109.584L368.531 110.911" stroke="white" stroke-width="0.267" stroke-miterlimit="3.99999" stroke-linecap="round" stroke-linejoin="round"/>
<path d="M248.732 51.6133L249.721 53.3703L247.85 53.0354L247.283 52.347L248.732 51.6133ZM294.736 150.686L294.476 150.747L293.163 150.929L292.507 150.043L289.232 149.415L288.435 150.194L289.611 150.969L286.944 152.089L286.922 150.543L285.685 150.29L284.984 151.343L283.25 151.173L282.717 149.693L281.465 148.475L280.273 149.333L277.905 150.121L277.467 148.998L276.196 149.235L274.346 148.604L273.526 146.727L272.324 146.521L271.941 143.804L270.435 144.19L270.899 142.861L271.776 142.704L271.231 141.249L269.337 141.033L268.68 141.868L266.608 140.866L265.234 136.454L266.584 133L271.105 128.927L270.224 127.015L273.818 124.53L272.854 122.725L272.661 121.202L250.894 111.542L244.837 109.047L241.724 107.566L248.044 98.638L248.22 95.713L240.31 87.1848L237.3 87.635L235.1 87.0805L235.243 86.4325L233.578 86.0426L232.37 85.0156L230.34 84.6862L229.556 83.769L228.244 83.8953L227.885 82.8356L225.795 83.1155L224.215 81.0233L222.289 79.6779L222.132 76.9377L220.232 75.9162L219.292 76.0095L218.449 74.9715L219.089 73.3133L217.424 72.3465L215.901 69.3523L212.852 68.3034L212.265 66.3749L211.844 64.8439L212.573 62.3299L212.494 60.8528L213.487 59.8041L212.886 57.3602L213.563 55.9781L213.277 53.6997L219.757 56.3668L226.059 58.4407L233.473 60.1594L242.256 61.6412L245.548 62.8349L249.694 66.1082L252.918 69.4843L257.854 71.6605L259.659 70.8587L265.67 72.0224L267.577 73.15L273.512 74.9645L274.847 75.9382L277.657 77.0628L281.403 79.1278L288.192 81.0172L293.019 82.9705L299.437 86.4747L302.29 87.7069L305.972 88.585L310.103 90.9368L312.901 92.1733L316.33 93.2715L320.879 93.2079L327.201 92.1065L335.326 89.7784L335.896 95.0702L326.842 98.3685L314.667 95.5529L292.303 98.2636L292.847 101.743L292.961 104.669L294.936 118.08L295.509 122.715L296.987 132.731L297.606 133.884L296.274 135.354L295.948 136.906L296.958 141.398L297.979 142.656L296.892 144.245L296.921 145.309L295.717 147.875L293.915 148.908L294.736 150.686Z" fill="#5EA9C9" stroke="white" stroke-width="0.267" stroke-miterlimit="3.99999" stroke-linecap="round" stroke-linejoin="round"/>
<path d="M390.941 115.893L390.993 166.657L383.155 166.802L381.067 167.626L378.114 166.182L369.461 168.095L364.498 165.655L361.082 167.256L354.075 164.873L350.212 162.429L353.06 158.933L352.549 157.453L351.581 154.429L352.413 154.136L351.833 152.569L350.022 152.228L351.939 150.057L351.01 147.805L352.077 146.266L350.6 145.254L348.041 142.651L348.73 142.219L349.038 139.882L350.02 137.388L348.848 136.656L351.915 134.384L351.239 133.029L351.679 126.358L351.459 116.002L353.929 111.507L353.14 110.177L354.612 108.068L361.111 109.859L366.104 109.584L368.531 110.911L370.464 111.018L373.434 109.965L380.03 111.405L383.182 113.107L386.809 114.253L390.941 115.893Z" fill="#5EA9C9" stroke="white" stroke-width="0.267" stroke-miterlimit="3.99999" stroke-linecap="round" stroke-linejoin="round"/>
<path d="M127.244 82.646L128.229 83.1824L129.217 84.8572L131.015 85.6722L133.304 87.5439L134.523 89.2471L134.068 90.9047L135.52 91.3325L133.744 92.4653L133.949 93.7398L135.915 94.2379L137.28 95.2603L140.681 95.7833L141.37 95.4888L141.812 97.6797L146.434 99.8013L146.367 100.404L148.076 100.77L151.606 103.203L155.432 104.66L156.294 106.885L155.847 109.401L157.477 111.212L155.151 113.682L156.595 114.536L156.404 117.023L157.402 118.03L159.558 118.279L162.135 119.931L161.808 121.255L162.486 123.449L165.094 125.449L168.956 128.127L174.502 128.404L172.04 129.968L167.647 130.975L165.982 131.075L165.029 130.269L162.985 130.626L161.106 129.479L158.348 130.993L154.486 131.711L150.676 131.586L148.708 132.433L146.128 132.424L144.389 134.6L142.617 134.669L140.786 135.3L138.148 134.842L136.665 135.596L132.397 135.882L133.199 135.132L131.22 132.44L128.357 134.171L125.299 134.392L123.531 133.971L120.541 136.339L117.911 135.952L114.647 137.956L112.306 138.815L110.222 138.403L108.441 135.691L109.395 131.682L108.551 129.561L106.628 128.606L103.846 128.436L101.025 127.396L96.7226 126.859L95.5179 126.649L93.5064 126.319L91.8421 125.981L88.7563 124.135L86.5562 122.506L83.6691 122.182L80.809 121.614L77.6037 120.55L75.5317 118.657L71.7502 118.332L72.6179 115.051L73.6201 113.001L75.9415 111.187L77.4555 110.059L78.7112 110.189L80.3778 108.952L83.1941 108.768L85.0553 107.517L87.7734 107.261L90.4808 105.728L93.4713 101.597L94.1233 99.8328L93.9604 97.8538L95.1688 94.8576L97.9244 93.0834L97.371 88.0284L101.16 84.9101L103.159 84.1369L105.417 84.3914L109.204 83.992L110.661 85.1471L111.329 84.5187L112.666 84.9089L114.191 86.7096L117.003 86.4099L118.633 87.1081L121.233 85.3872L123.872 86.1303L125.529 85.4939L126.378 84.4825L127.497 84.9401L127.865 83.5399L127.244 82.646Z" fill="#5EA9C9" stroke="white" stroke-width="0.267" stroke-miterlimit="3.99999" stroke-linecap="round" stroke-linejoin="round"/>
<path d="M213.275 53.6998L213.561 55.9783L212.885 57.3604L213.485 59.8043L212.493 60.8529L212.571 62.3301L210.799 65.5267L210.64 67.3504L211.169 70.1077L215.901 69.3525L217.423 72.3467L219.088 73.3135L218.448 74.9717L219.29 76.0097L220.23 75.9164L222.13 76.9379L222.287 79.6781L224.213 81.0235L225.794 83.1157L227.883 82.8358L228.242 83.8955L229.554 83.7692L230.338 84.6864L232.369 85.0158L233.577 86.0428L235.242 86.4327L235.098 87.0807L237.299 87.6352L240.309 87.185L248.218 95.7132L248.042 98.6381L241.723 107.567L244.835 109.047L250.893 111.542L272.66 121.202L272.853 122.725L273.817 124.53L270.224 127.015L271.105 128.927L266.584 133L265.234 136.455L266.608 140.866L264.162 140.143L260.852 139.113L257.33 138.318L253.197 136.825L253.111 134.658L249.208 134.717L247.404 137.968L242.275 139.841L239.473 135.857L239.901 130.595L240.392 124.753L234.745 122.784L228.83 121.277L226.862 123.484L224.678 120.508L220.115 120.819L215.965 123.599L211.68 124.604L211.124 127.142L205.796 126.714L202.207 131.847L200.263 135.117L194.602 136.985L188.649 136.86L181.773 135.605L177.687 135.702L177.338 134.831L171.548 133.439L169.92 133.739L167.647 130.975L172.04 129.968L174.502 128.404L168.956 128.127L162.486 123.449L161.808 121.255L162.135 119.931L159.558 118.279L157.402 118.03L156.404 117.022L156.595 114.536L155.151 113.682L157.477 111.212L155.847 109.4L156.294 106.884L155.432 104.66L151.606 103.203L148.076 100.77L146.367 100.404L146.434 99.801L141.812 97.6795L141.37 95.4885L140.681 95.783L137.28 95.2601L135.915 94.2377L133.949 93.7395L133.744 92.4651L135.52 91.3323L134.068 90.9044L134.523 89.2468L133.304 87.5436L131.015 85.6719L129.217 84.8569L128.229 83.1822L127.244 82.6457L129.172 82.5592L129.083 83.6253L131.505 82.605L133.862 82.7662L134.716 81.2692L135.913 80.7279L135.78 79.7489L137.964 80.333L139.428 80.1391L143.083 78.51L146.285 79.181L149.543 78.2656L151.757 76.8297L153.391 76.4698L154.056 75.6602L151.393 73.3139L153.076 72.3588L150.876 69.9066L149.276 69.6708L148.726 68.2961L145.049 65.4133L145.407 63.0572L147.279 61.3861L149.102 61.3207L151.319 60.1426L154.666 60.0943L154.99 59.2673L160.537 56.6983L162.364 56.0723L169.465 52.2353L169.506 51.9325L177.97 49.1489L180.921 47.5469L185.119 46.4514L186.344 45.5287L188.163 45.8015L192.356 44.7369L195.713 44.8727L196.327 45.2615L198.23 44.5256L200.571 48.3843L201.924 48.4482L203.274 49.967L205.627 51.5139L208.784 52.8779L213.275 53.6998Z" fill="#5EA9C9" stroke="white" stroke-width="0.267" stroke-miterlimit="3.99999" stroke-linecap="round" stroke-linejoin="round"/>
<path d="M390.941 115.892L386.983 114.374L383.182 113.106L380.03 111.405L373.434 109.964L370.464 111.018L368.531 110.911L366.103 109.584L367.179 105.585L367.418 103.649L364.921 104.154L362.523 102.736L364.476 99.3385L368.022 100.198L369.114 97.4778L372.514 98.6682L374.581 99.7264L375.561 100.994L373.38 102.152L374.149 102.82L372.246 104.86L373.06 105.727L374.321 105.834L376.547 105.618L378.512 104.89L381.47 104.498L386.137 105.576L388.807 104.889L390.819 104.38L390.941 115.892Z" fill="#5EA9C9" stroke="white" stroke-width="0.267" stroke-miterlimit="3.99999" stroke-linecap="round" stroke-linejoin="round"/>
</svg>
