<svg width="223" height="153" viewBox="0 0 223 153" fill="none" xmlns="http://www.w3.org/2000/svg">
<path d="M60.4189 148.343L64.4814 148.945L64.4633 149.27L60.5309 148.888L60.4189 148.343ZM49.7886 146.918L51.5855 147.859L50.5658 148.611L49.7886 146.918ZM59.7469 143.29L59.3418 144.039L56.591 144.396L56.7157 143.679L59.7469 143.29ZM12.6031 125.807L13.1577 127.87L12.5143 128.03L11.2386 125.989L12.6031 125.807ZM51.6248 121.287L51.9917 120.84L55.6826 120.17L56.7717 119.348L58.6464 119.921L57.9155 122.037L56.8805 122.639L58.5337 124.165L61.351 125.284L61.6198 126.561L62.6944 127.679L60.4702 131.459L59.3694 131.276L57.0838 132.695L57.3427 133.603L59.4349 134.546L61.8172 134.429L62.6838 136.054L60.8812 136.425L62.7762 138.207L58.5028 138.822L58.418 137.018L55.1432 135.8L54.1988 137.184L52.375 137.722L50.9738 140.022L46.7295 140.517L45.1341 140.026L42.6764 140.458L41.1505 139.868L41.2956 139.022L39.2525 138.571L35.5715 138.456L33.9113 137.413L32.4574 138.027L28.8157 136.125L25.6099 135.433L22.8348 133.681L21.4649 133.477L19.5553 131.993L17.5555 131.34L17.1587 130.386L18.449 129.039L25.9962 127.276L28.6633 125.3L33.264 124.548L35.3489 123.185L38.6874 122.218L40.877 122.535L41.8687 121.789L44.7835 122.09L47.028 121.924L50.9953 122.508L51.6248 121.287ZM1.12796 93.9051L0.133331 93.5482L1.33306 92.3786L2.2135 93.2998L1.12796 93.9051ZM19.0901 91.7115L18.1242 93.1784L16.5576 94.1305L15.5513 93.1136L16.7358 91.9684L19.0901 91.7115ZM27.8778 91.6054L28.3051 92.0097L33.4528 92.4719L31.4442 93.8265L29.8525 93.9017L27.5395 95.5885L24.236 96.7465L23.581 96.3207L25.6398 94.9783L27.5501 94.6899L27.7745 93.8014L24.5797 94.7725L21.9944 94.3397L19.5589 95.1952L18.1926 93.8718L19.0014 93.0184L23.0148 91.999L25.5532 91.7644L26.3602 91.1032L27.8778 91.6054ZM103.22 88.2964L102.841 86.8108L103.981 84.1141L107.098 83.8719L107.357 84.9521L106.204 85.5351L106.837 86.9647L105.673 88.0538L103.22 88.2964ZM99.5625 94.4856L97.9765 93.7225L95.4949 93.3659L93.7558 93.7938L92.8994 94.7961L90.0777 94.6297L88.4659 95.034L86.4309 93.6127L84.1914 92.9209L81.8305 93.2573L81.2919 94.0311L81.4272 92.7857L78.7964 91.0916L77.8011 89.9755L78.6542 89.1185L80.2242 89.2372L77.6723 84.8619L75.1699 83.2675L75.0968 81.9936L80.4042 81.1079L81.6781 80.4078L84.8482 80.4322L85.2362 79.6223L88.3423 78.6081L91.9244 78.725L94.0227 81.0595L95.672 80.7681L97.0001 79.8224L97.6863 80.1732L99.9829 79.4572L101.076 80.3233L102.205 83.0944L101.987 84.494L103.321 84.6371L102.593 86.3196L102.302 89.2604L101.347 90.6517L100.853 93.9186L99.5625 94.4856ZM86.1556 71.7316L87.4673 71.9585L91.5818 71.7035L93.3572 72.6782L92.7343 73.4208L91.0683 73.0523L88.898 74.2307L89.1463 76.3197L86.5389 77.1327L81.2508 77.5196L79.7889 78.2075L75.7678 79.1091L68.6789 79.7753L67.4628 78.6457L65.7015 79.2412L63.8661 78.8522L61.1528 79.978L60.6019 79.3984L63.7217 77.7765L63.1152 75.4606L65.2048 74.5724L68.4698 75.6511L69.6455 75.4584L71.0871 73.9744L73.5905 74.4739L74.8146 73.4612L75.8707 74.6546L77.7342 73.8087L81.2275 74.6201L82.6015 74.0423L83.3342 74.5002L84.6093 73.4386L85.8272 73.2826L86.1556 71.7316ZM74.0975 52.9363L75.8605 53.0846L78.9641 55.0671L76.753 58.4153L74.6914 59.2387L72.5192 59.2295L72.6926 56.1756L70.4623 56.274L70.575 57.5491L69.2946 58.5759L66.8824 57.7109L66.8896 57.0567L64.2385 56.9417L64.5254 54.9778L65.6244 54.2747L67.0707 54.905L67.9275 56.3074L69.6386 55.6602L69.887 54.3251L72.4119 53.2678L73.8127 53.626L74.0975 52.9363ZM28.2527 52.223L30.1132 53.1461L28.8091 54.4716L29.0193 55.9664L28.057 57.0696L26.4464 57.1255L25.151 55.0684L25.7663 53.251L28.2527 52.223ZM65.9965 47.1749L67.4562 47.3529L67.3348 48.5635L65.8528 48.6203L65.9965 47.1749ZM49.7202 46.6332L49.6461 48.2594L47.6266 47.363L47.983 46.238L49.7202 46.6332ZM75.6089 37.0126L74.7041 37.9916L78.7753 41.683L80.3871 43.6618L81.8112 46.6335L83.1277 46.52L85.0726 47.5067L86.9898 46.6464L88.6208 47.8218L91.548 48.1377L92.9281 47.6123L93.8631 49.8126L93.9169 51.589L92.8066 52.3934L90.7094 52.9595L90.2559 53.7838L88.615 53.6942L85.006 54.8833L80.8184 54.6163L79.7951 53.3265L79.3692 51.4177L78.1378 49.2688L79.1161 48.4904L79.0564 47.3667L77.4058 46.7449L75.0805 47.745L73.4513 47.429L71.9722 48.153L70.946 49.9878L72.081 51.4608L70.451 53.1289L70.3554 53.9606L68.9785 53.8318L69.9397 52.2352L69.3637 51.2522L69.2753 48.58L68.8225 47.4602L67.302 46.9091L68.2352 44.9611L67.3079 44.0968L63.9589 44.9033L63.0624 46.3818L61.8252 44.9311L59.8291 45.46L57.4431 45.2379L57.0765 44.6323L54.6694 45.0048L52.8158 43.1391L50.4439 43.0694L48.4863 42.5216L48.7456 41.82L51.9252 42.6256L55.9469 42.6822L56.8194 41.7986L58.1202 41.913L57.9558 43.7307L59.7771 43.2089L60.7535 41.9809L62.7639 41.2266L60.8488 39.0893L58.6544 40.069L57.5507 39.0398L56.2008 41.0911L53.6377 40.3623L53.6944 38.9624L52.3288 38.8422L52.1114 37.2282L53.8235 36.4159L56.8874 37.2181L58.5628 37.101L58.4733 35.3512L59.4014 34.8814L61.0277 36.4024L62.53 36.0898L64.1985 34.8529L65.9397 35.075L66.0503 34.3917L68.2861 34.2061L69.2426 34.878L72.1486 33.1426L74.6106 34.2342L74.8677 33.743L80.8224 32.4003L80.7406 33.6381L83.3528 33.8283L83.9179 32.9707L82.5891 32.2917L83.7226 31.5363L86.2483 31.3561L90.3417 31.843L94.3751 33.2686L96.2087 34.2088L100.009 33.0934L102.845 34.9407L107.787 35.4818L110.183 37.1297L110.28 38.0684L113.94 38.3773L114.643 39.1435L116.726 39.6925L117.87 42.2421L116.6 42.8746L116.75 44.0497L119.523 46.7522L117.516 47.2272L117.106 48.2292L115.165 49.6398L113.594 49.4095L114.303 51.0467L113.24 51.4171L111.174 50.5378L110.338 49.5388L107.912 48.7259L104.436 48.3564L102.047 48.7161L100.917 49.7233L97.9092 50.2478L94.4955 49.6248L92.9972 47.2608L91.8033 47.3076L91.796 46.1604L89.5104 43.6631L87.8579 44.313L85.2598 44.0894L84.6303 43.1309L84.9875 41.2884L83.8896 39.3842L82.5396 39.5178L81.0657 38.7902L78.7997 34.9814L75.4962 35.5815L73.7051 35.1551L73.0098 35.8002L75.6089 37.0126ZM42.1225 31.1402L42.8295 32.3703L44.4951 33.3968L44.1467 35.7573L41.9705 35.9718L41.7462 34.7208L40.8264 34.555L40.8628 33.0576L42.1225 31.1402ZM93.8282 31.3925L93.2525 30.4349L94.0467 29.8348L95.8178 30.5291L93.8282 31.3925ZM102.697 10.9994L102.155 12.324L100.055 10.7113L101.143 9.82062L102.697 10.9994ZM112.11 1.51331L109.577 0.824531L109.871 0.133301L112.08 0.879891L112.11 1.51331Z" fill="#2A85A9" stroke="white" stroke-width="0.266667" stroke-miterlimit="3.99973" stroke-linecap="round" stroke-linejoin="round"/>
<path d="M149.892 89.0794L149.998 86.1654L154.948 82.9321L157.1 83.7225L157.834 86.316L164.755 86.9885L166.937 88.7275L166.116 102.449L168.836 102.555L174.341 103.335L175.515 101.143L180.665 103.48L183.17 106.159L184.679 108.445L182.826 109.542L183.329 113.358L180.679 114.776L179.009 119.045L176.591 121.819L178.252 123.908L179.342 127.078L190.853 127.133L193.896 127.544L203.827 129.503L203.776 131.935L200.282 135.8L204.394 139.935L202.87 144.355L204.236 144.911L204.829 148.094L202.363 151.237L200.11 150.262L198.389 146.868L195.361 147.265L192.523 148.016L188.206 149.694L184.372 151.469L181.127 152.05L179.366 150.757L177.144 148.012L172.642 144.977L170.289 145.001L165.356 142.086L164.171 141.058L164.774 139.971L167.081 138.613L166.049 137.839L163.817 138.424L161.867 136.56L159.87 135.959L160.637 133.346L158.639 133.057L156.915 131.041L156.543 129.951L158.171 129.134L156.408 127.311L158.665 126.038L158.536 125.452L160.877 123.606L161.616 123.891L162.863 121.403L159.962 121.476L155.52 122.282L153.999 115.777L151.794 114.423L148.198 116.054L147.587 114.322L148.781 112.264L148.095 109.8L150.056 109.188L149.143 106.674L150.568 101.683L147.401 101.798L145.795 98.5815L148.113 96.2002L152.511 96.0543L152.83 91.6338L149.892 89.0794Z" fill="#2A85A9" stroke="white" stroke-width="0.267" stroke-miterlimit="3.99999" stroke-linecap="round" stroke-linejoin="round"/>
<path d="M99.2456 98.1551L98.9489 99.261L96.7878 102.974L94.7427 102.877L93.6986 101.716L91.6954 101.251L87.4808 99.4546L84.4331 97.5563L83.34 97.8832L81.8498 95.7791L82.2106 94.5466L81.3113 94.0405L81.8499 93.2667L79.9492 90.5887L78.7226 89.5125L80.9279 88.1143L83.8464 87.7099L94.168 90.3612L96.2743 91.5572L100.295 93.2957L101.36 96.3775L99.2456 98.1551ZM157.834 86.3159L157.1 83.7225L154.948 82.9321L149.998 86.1653L149.892 89.0793L152.83 91.6337L152.511 96.0541L148.113 96.2L145.794 98.5813L147.401 101.798L150.568 101.683L149.143 106.674L150.056 109.188L148.095 109.8L148.781 112.263L147.586 114.322L143.697 114.937L139.787 113.885L134.729 112.437L128.811 109.92L127.93 110.951L126.085 111.455L123.377 109.642L122.132 108.05L123.881 107.425L122.803 106.015L121.562 105.809L121.072 103.696L120.212 103.443L117.825 105.977L119.479 108.227L118.013 110.222L113.791 111.426L111.423 112.587L109.937 110.172L108.418 108.99L106.469 108.993L103.963 107.939L97.6646 108.771L94.8289 108.133L93.9056 107.468L95.818 105.415L97.8042 104.611L98.8046 101.645L100.967 98.2053L103.353 96.8578L106.005 97.2921L109.046 96.2939L112.741 89.5163L112.591 88.1071L114.38 84.2692L115.435 84.0453L114.934 82.4513L117.137 81.9991L117.992 81.2411L125.734 81.9986L128.718 80.5612L126.702 76.8386L122.994 75.5355L123.487 74.741L123.315 72.561L124.119 71.6539L127.609 71.1441L129.553 70.2856L131.72 70.0798L131.996 71.8313L134.649 70.9019L137.489 70.3073L141.415 70.3991L145.205 69.4146L150.29 68.7876L153.909 67.0212L155.584 65.3679L155.732 64.2078L157.972 62.9857L161.814 60.842L164.681 65.0778L163.923 66.2275L164.688 67.9845L169.295 69.259L173.55 73.8208L170.021 75.2049L169.838 75.7985L168.805 76.578L168.816 77.8259L171.836 78.3655L174.737 79.9631L175.004 81.6802L171.151 83.2083L167.93 85.9354L166.937 88.7273L164.756 86.9883L157.834 86.3159Z" fill="#2A85A9" stroke="white" stroke-width="0.267" stroke-miterlimit="3.99999" stroke-linecap="round" stroke-linejoin="round"/>
<path d="M165.778 58.3858L165.67 57.1658L167.769 55.6673L170.352 54.717L171.418 53.6044L173.367 52.7655L176.593 52.3025L177.431 51.1877L181.432 51.3165L182.9 51.0877L184.06 50.1427L185.305 50.3439L187.005 49.3402L188.348 49.29L192.942 50.0678L194.374 49.817L199.776 50.3047L203.468 50.6798L205.894 50.4626L210.214 52.3772L218.02 55.8506L220.805 55.3649L220.819 56.8783L218.703 57.684L216.933 62.8547L218.348 65.0113L215.133 66.2332L210.161 66.1124L208.727 67.7586L207.133 71.2988L210.739 72.1473L209.649 77.0115L201.209 77.5559L196.456 78.1396L195.523 80.6424L197.649 84.7012L199.012 87.582L196.903 88.4479L194.625 85.7034L190.261 85.8615L187.277 84.6088L185.941 83.1753L180.656 81.1855L177.962 79.9099L176.493 80.6736L174.737 79.9634L171.836 78.3658L168.816 77.8262L168.805 76.5784L169.838 75.7988L170.021 75.2052L173.55 73.8211L169.295 69.2593L164.688 67.9848L163.923 66.2278L164.681 65.0782L162.79 62.8896L161.814 60.8424L165.617 59.6026L165.778 58.3858Z" fill="#2A85A9" stroke="white" stroke-width="0.267" stroke-miterlimit="3.99999" stroke-linecap="round" stroke-linejoin="round"/>
<path d="M202.103 92.8742L205.948 91.3008L211.37 92.965L212.692 94.9924L216.45 98.6143L222.093 100.708L222.759 103.484L219.927 105.106L219.988 108.066L218.297 110.395L210.724 113.877L206.028 110.174L200.807 112.467L202.874 116.356L200.793 122.829L201.449 129.166L190.853 127.133L179.343 127.078L178.252 123.908L176.591 121.819L179.009 119.045L180.679 114.776L183.329 113.357L182.826 109.542L184.679 108.445L183.17 106.159L180.665 103.48L175.515 101.143L174.341 103.335L168.836 102.555L166.116 102.449L166.937 88.7274L167.93 85.9355L171.151 83.2084L175.004 81.6803L174.737 79.9632L176.493 80.6736L177.962 79.9099L185.941 83.1753L187.277 84.6089L190.261 85.8615L194.625 85.7034L196.903 88.4478L197.212 91.3266L202.103 92.8742Z" fill="#2A85A9" stroke="white" stroke-width="0.267" stroke-miterlimit="3.99999" stroke-linecap="round" stroke-linejoin="round"/>
<path d="M123.315 72.5611L123.487 74.7411L122.994 75.5357L126.702 76.8381L128.718 80.5607L125.734 81.9982L123.967 81.7284L117.992 81.2406L117.137 81.9986L114.934 82.4508L115.906 80.6516L116.458 79.7095L116.124 78.6444L113.59 77.3963L113.565 75.9714L112.304 74.6408L118.862 73.2138L120.635 72.5571L123.315 72.5611Z" fill="#2A85A9" stroke="white" stroke-width="0.267" stroke-linecap="round" stroke-linejoin="round"/>
</svg>
