<svg width="219" height="243" viewBox="0 0 219 243" fill="none" xmlns="http://www.w3.org/2000/svg">
<path d="M89.2812 202.076L87.8303 202.594L86.5179 202.011L86.6536 200.168L89.2812 202.076ZM90.6936 198.231L91.3907 198.626L89.5401 200.476L87.7983 200.084L87.3197 199.164L90.6936 198.231ZM84.3706 198.449L86.0808 199.333L85.6437 202.791L84.6143 203.548L82.135 203.723L81.6921 202.946L82.0263 201.688L82.0226 201.476L81.8561 201.28L81.9743 201.077L81.8317 200.445L82.0361 199.765L81.8539 199.593L81.747 199.35L81.8346 199.191L82.0041 199.172L82.1565 199.076L82.1274 198.869L82.0444 198.693L82.1532 198.442L82.5568 198.193L83.174 198.041L84.3706 198.449ZM91.0758 195.438L90.9874 196.889L90.015 198.22L87.1455 199.036L86.5372 197.785L88.8238 196.766L89.0511 196.472L89.2795 195.84L91.0758 195.438ZM83.8423 197.353L81.7382 196.377L81.931 193.852L84.1772 195.633L83.8423 197.353ZM79.8935 190.954L81.1779 192.205L81.6179 193.525L81.6633 196.994L83.1488 198.016L82.4288 198.225L82.1589 198.407L82.0273 198.598V198.695L82.1099 198.934L82.0989 199.097L81.8534 199.157L81.7349 199.33L81.7204 199.417L81.8116 200.387L81.9455 201.12L81.8444 201.25V201.343L82.0102 201.529L81.7585 201.951L81.6403 202.723L81.1869 203.367L78.5494 203.094L75.6109 203.486L72.9777 203.217L70.6581 202.55L67.117 202.412L64.0173 201.843L63.0566 200.739L65.2104 198.368L69.9795 195.557L70.6137 194.5L71.0664 191.995L73.0701 192.049L75.9 191.588L79.6781 190.292L79.8935 190.954ZM70.6898 149.332L75.24 149.566L77.8233 150.089L81.4782 151.969L82.8888 153.191L84.5739 156.245L87.2015 158.741L90.9074 159.565L92.835 159.501L96.4649 160.093L96.2983 161.196L94.6827 162.286L93.3924 164.777L93.4252 166.321L91.4597 168.573L90.7204 170.275L91.3048 173.993L90.3143 175.52L87.0066 176.36L84.8095 177.808L84.4091 178.767L85.1659 181.354L84.3244 184.915L85.8128 186.233L85.811 187.017L82.4728 186.612L79.7374 187.732L78.7658 190.212L74.4563 191.125L71.3308 190.778L69.8548 192.228L69.4283 193.832L67.0319 196.21L64.0392 197.683L61.9606 199.152L59.8318 199.741L59.4264 201.148L56.0594 203.382L49.7412 205.241L47.363 205.517L44.9637 205.227L44.8732 203.766L42.2735 203.051L40.7099 203.354L33.0535 203.526L22.7537 203.335L19.2057 203.394L11.5878 204.501L9.07583 205.331L6.45687 206.64L5.52307 205.129L6.48268 202.476L7.23292 198.867L8.28347 195.493L10.6191 190.641L14.6901 185.723L16.5937 185.003L15.4981 183.605L15.9024 182.207L17.8973 178.472L22.3464 171.656L23.9814 169.994L26.1884 168.897L27.6211 165.787L30.5808 162.456L35.7684 158.35L40.4892 155.62L42.9274 154.514L48.1757 152.694L53.6031 151.519L63.7755 150.36L67.6526 149.554L70.6898 149.332ZM70.3268 141.266L103.653 147.051L108.218 149.048L115.033 149.828L118.601 140.214L114.971 140.32L112.693 138.244L115.72 135.431L120.594 137.584L120.773 142.41L125.255 144.269L127.215 142.527L126.59 139.784L130.355 137.971L131.946 138.522L131.238 142.001L132.473 145.024L134.786 144.489L135.211 142.436L138.377 140.918L139.311 138.278L139.384 135.329L141.954 133.639L147.289 136.055L147.959 139.137L152.37 139.359L157.028 140.315L174.187 139.231L196.883 125.427L210.234 120.003L210.56 121.559L213.176 121.989L213.358 123.712L214.322 124.919L218.564 123.511L218.597 242.682L216.058 241.292L211.205 240.796L206.153 236.877L204.253 234.639L199.013 230.251L197.299 229.343L193.291 226.13L191.453 223.582L187.827 219.459L186.124 215.633L183.526 214.171L178.082 209.928L176.857 208.164L174.199 207.099L170.885 204.71L169.064 203.04L168.85 201.94L165.777 201.153L157.609 196.303L154.037 193.589L152.139 191.271L151.598 188.981L150.745 188.388L147.024 188.741L145.131 188.374L136.675 188.265L128.205 189.862L127.935 190.621L123.409 192.439L122.188 192.334L120.137 193.238L112.771 193.896L110.34 192.498L108.882 192.351L107.162 190.926L105.451 188.005L104.275 188.164L96.6005 190.252L95.626 191.089L90.6059 193.702L90.9041 195.075L89.2387 195.849L88.8786 196.684L87.7223 197.017L86.3877 197.659L85.0194 195.513L82.2081 192.773L80.8255 189.668L81.4309 188.36L83.5368 187.562L85.5241 187.616L86.7681 186.616L85.2321 184.347L86.2837 182.238L86.4194 180.918L85.5856 179.343L87.2263 177.651L90.8311 176.28L92.4882 175.219L92.9089 174.161L92.3398 171.866L92.4871 169.734L94.3533 167.59L95.0107 164.73L95.9158 163.129L98.1649 161.74L98.2555 160.067L97.6395 158.554L94.6297 157.3L89.4882 157.599L87.8896 155.485L86.2616 150.848L84.6834 148.336L82.1965 146.376L78.6503 145.298L76.9066 143.849L71.7909 142.246L70.3268 141.266Z" fill="#49A92A" stroke="white" stroke-width="0.267" stroke-miterlimit="3.99999" stroke-linecap="round" stroke-linejoin="round"/>
<path d="M207.952 109.635L207.553 112.462L207.876 114.842L210.981 115.903L209.147 118.392L210.233 120.003L196.883 125.427L174.187 139.231L157.028 140.315L152.37 139.358L151.346 113.301L149.644 107.35L144.383 106.351L143.95 99.8717L141.836 97.4896L144.847 94.8846L145.37 91.7654L143.364 90.5179L143.233 88.6098L144.018 87.1788L143.575 84.5128L142.673 70.467L146.548 70.6661L146.79 68.549L142.65 65.4455L143.035 62.1828L139.273 37.4232L139.541 35.3812L141.757 32.8466L146.078 29.0205L160.617 32.2748L163.704 32.7292L168.982 33.5073L190.574 36.0356L202.661 37.4647L212.723 38.755L216.718 39.1123L216.64 93.0499L215.859 94.1206L215.07 95.7562L214.081 96.4388L214.824 98.0457L214.163 99.9954L212.995 98.9549L212.17 99.6901L212.846 101.729L214.151 101.71L214.228 102.917L213.027 102.905L212.418 104.188L213.04 105.38L210.546 106.582L211.546 108.121L209.894 108.32L207.952 109.635Z" fill="#49A92A" stroke="white" stroke-width="0.267" stroke-miterlimit="3.99999" stroke-linecap="round" stroke-linejoin="round"/>
<path d="M73.4261 136.093L76.0643 137.559L75.4116 138.794L73.4098 138.202L72.8454 137.423L73.4261 136.093ZM151.346 113.301L152.37 139.358L147.959 139.137L147.289 136.054L141.954 133.639L139.384 135.329L139.311 138.278L138.377 140.918L135.211 142.435L134.786 144.489L132.473 145.024L131.238 142L131.946 138.522L130.355 137.971L126.59 139.784L127.215 142.527L125.255 144.269L120.773 142.409L120.594 137.584L115.72 135.431L112.693 138.244L114.971 140.32L118.601 140.214L115.146 149.893L108.219 149.048L103.654 147.051L70.3271 141.266L70.9693 140.281L75.6563 140.921L80.6814 140.869L82.1996 139.477L82.0996 138.297L77.1093 136.517L71.881 133.366L70.0631 131.927L65.8547 129.668L63.7634 126.522L64.6634 124.746L67.8776 123.329L69.3573 123.895L70.9173 122.854L70.6784 121.013L67.4202 118.361L66.7511 116.74L68.1202 115.596L70.7209 115.269L70.2606 111.552L72.1468 109.898L68.694 106.91L70.15 105.805L70.6297 104.46L72.3886 103.788L75.2668 104.158L77.5053 102.342L81.9101 102.363L84.1538 99.7729L79.1237 65.2921L121.003 45.5433L125.366 44.9805L129.971 44.6185L133.952 42.3031L139.143 37.8591L143.035 62.1827L142.65 65.4455L146.79 68.5489L146.548 70.666L142.673 70.4669L143.575 84.5127L144.018 87.1788L143.233 88.6097L143.363 90.5178L145.37 91.7653L144.847 94.8845L141.836 97.4896L143.95 99.8717L144.383 106.351L149.644 107.35L151.346 113.301Z" fill="#49A92A" stroke="white" stroke-width="0.267" stroke-miterlimit="3.99999" stroke-linecap="round" stroke-linejoin="round"/>
<path d="M83.0561 9.30837L88.1525 9.24413L93.1939 9.82645L99.7954 14.5338L110.52 20.4883L123.593 24.0947L131.987 25.9398L146.078 29.0205L141.757 32.8466L139.541 35.3812L138.831 38.4876L133.952 42.3033L129.971 44.6186L121.003 45.5435L79.1235 65.2921L84.1535 99.7729L81.9098 102.362L77.5051 102.341L75.2665 104.156L72.3884 103.786L70.6294 104.459L70.1497 105.803L68.6938 106.908L64.6141 102.845L58.1478 98.2326L55.4289 96.0132L54.7547 94.8611L55.4413 93.9506L54.1394 92.4145L52.3864 87.1801L53.1507 85.8813L50.2707 81.5767L49.8416 80.2543L47.2707 75.7778L45.8601 73.7847L44.3514 72.807L44.1328 70.2267L45.6761 69.5003L45.4161 68.1852L42.7866 67.4956L40.2932 67.5201L38.5011 66.4032L38.2837 63.7495L39.252 63.2418L38.6561 62.0662L36.4466 61.9542L32.9956 62.8723L31.3647 59.5201L30.9458 56.6594L31.4658 54.3647L32.8735 53.1013L33.5367 51.6388L31.2018 50.4516L28.6611 50.1922L25.1101 47.3104L23.5414 45.5745L20.3293 42.7394L18.0766 43.6358L16.2181 43.9013L13.2035 42.9165L12.0973 43.6297L10.6253 42.5183L12.0336 39.5423L8.12086 36.4035L8.2198 35.431L6.32889 34.7872L5.44703 35.1343L3.90632 34.2691L0.551004 33.2721L0.133545 31.5527L1.51538 30.9686L3.36196 31.135L4.85688 30.6545L3.38415 29.4342L3.12013 28.3804L4.36174 26.9869L5.33655 25.7511L5.86526 24.7594L3.72953 22.7981L3.42227 21.4129L4.31829 19.0057L4.40191 17.1893L6.74829 16.8794L8.54537 14.1457L9.46413 11.4385L11.4841 8.32479L11.127 4.75857L10.7648 0.728769L16.3052 0.133545L21.4889 1.64515L26.0901 2.44491L35.2624 4.03002L36.8792 4.16001L49.7546 6.677L65.0242 9.22766L68.7955 9.94544L73.5315 10.006L80.277 9.34205L83.0561 9.30837Z" fill="#49A92A" stroke="white" stroke-width="0.267" stroke-miterlimit="3.99999" stroke-linecap="round" stroke-linejoin="round"/>
</svg>
