<svg width="212" height="128" viewBox="0 0 212 128" fill="none" xmlns="http://www.w3.org/2000/svg">
<path d="M84.2964 54.9398L84.4427 55.8983L87.4065 57.7078L90.0008 56.5832L92.0251 58.5514L94.43 57.7838L99.1737 61.7369L107.712 63.7695L108.566 65.0971L102.929 65.772L99.6207 64.8021L98.0108 67.9407L92.0589 67.533L86.2069 69.8484L82.251 70.0365L75.5455 73.1983L71.6101 73.557L66.8363 75.9147L67.9815 79.6523L66.6829 83.3156L59.3765 81.9515L58.7407 77.3084L61.3226 76.2455L61.6412 73.6106L63.9806 70.9233L66.6648 68.6778L65.5331 66.9594L62.9804 66.3868L60.4272 66.5303L61.389 64.165L62.5829 63.1609L63.4854 60.5048L63.4868 56.7494L63.5893 54.0133L56.2654 53.7153L49.4017 49.5993L47.4033 49.2752L47.4589 46.8988L53.8988 46.0908L61.1697 45.989L63.7497 45.0881L64.7374 46.5716L67.1846 46.4257L70.2535 47.6143L73.8281 50.2367L77.6351 50.9279L80.4562 53.2864L82.0766 53.9323L84.2964 54.9398Z" fill="#9FA92A" stroke="white" stroke-width="0.267" stroke-miterlimit="3.99999" stroke-linecap="round" stroke-linejoin="round"/>
<path d="M148.422 119.125L126.363 114.302L117.969 112.457L104.896 108.851L94.1711 102.896L87.5696 98.1888L82.5281 97.6065L77.4317 97.6708L76.6891 90.8694L75.2077 88.5943L76.1739 85.5613L75.5455 73.199L82.2511 70.0366L86.2069 69.8486L92.0589 67.5331L98.0108 67.9409L99.6207 64.8022L102.929 65.7722L108.566 65.0979L116.24 63.5913L119.375 62.7013L125.411 60.5419L127.941 59.1201L144.653 38.8425L146.345 38.3135L146.989 38.9206L146.154 39.8955L147.53 40.6873L148.721 40.295L148.422 119.125Z" fill="#9FA92A" stroke="white" stroke-width="0.267" stroke-miterlimit="3.99999" stroke-linecap="round" stroke-linejoin="round"/>
<path d="M211.067 46.2822L211.092 127.474L207.094 127.117L197.031 125.827L171.706 123.012L154.992 120.637L148.421 119.125L148.72 40.295L150.134 39.7856L151.391 41.5815L152.934 40.3863L154.477 42.2363L155.055 41.9152L157.273 42.9082L158.3 42.8959L158.842 43.2085L161.781 41.1394L165.398 40.7956L168.676 45.0581L174.149 44.4983L177.599 45.7534L181.156 46.8815L184.573 45.2805L189.536 47.7205L198.188 45.8075L201.141 47.2511L203.229 46.427L211.067 46.2822Z" fill="#9FA92A" stroke="white" stroke-width="0.267" stroke-miterlimit="3.99999" stroke-linecap="round" stroke-linejoin="round"/>
<path d="M73.2712 16.4505L77.4049 17.9432L80.9266 18.738L86.6826 20.4916L88.7539 21.4935L89.411 20.6579L91.3052 20.8742L91.8503 22.3293L90.9736 22.4859L90.5076 23.8154L88.4427 26.115L85.3062 25.3213L78.0866 28.2522L78.0473 32.7104L74.6519 34.3271L72.0219 33.9034L70.845 35.0341L70.3145 38.8277L67.5759 40.5508L67.0871 43.3106L63.7495 45.0882L61.1696 45.9891L53.8987 46.0909L47.4723 46.6418L45.0032 45.935L41.1068 46.2455L38.8003 47.5593L32.1862 47.1515L30.1918 48.4546L27.6239 48.0356L26.7537 41.032L26.7356 37.6453L24.6426 36.2508L25.472 34.6078L26.603 33.2845L29.9966 31.0009L29.4399 26.4513L29.5362 22.0833L30.8299 17.251L33.3365 15.95L33.063 13.7893L36.0708 11.5402L36.3803 9.07044L31.2004 6.76733L31.7545 4.22948L36.0395 3.22404L40.1892 0.444166L44.7529 0.133545L46.9363 3.10901L48.9047 0.902147L54.8199 2.40946L60.4661 4.37828L59.547 15.4821L62.3495 19.4657L67.4787 17.5934L69.2823 14.3421L73.1858 14.2827L73.2712 16.4505Z" fill="#9FA92A" stroke="white" stroke-width="0.267" stroke-miterlimit="3.99999" stroke-linecap="round" stroke-linejoin="round"/>
<path d="M60.4271 66.5304L62.9802 66.3869L65.533 66.9594L66.6647 68.6779L63.6965 71.4013L61.6411 73.6107L61.3225 76.2456L58.7406 77.3086L59.3764 81.9516L66.6828 83.3156L67.9814 79.6524L66.8361 75.9148L71.6101 73.5571L75.5453 73.1984L76.1737 85.5607L75.2075 88.5937L76.689 90.8687L77.4315 97.6701L74.6529 97.7053L67.9074 98.3692L63.1714 98.3087L59.4001 97.5909L44.1305 95.0403L31.2551 92.5233L29.6384 92.3933L20.466 90.8082L15.8648 90.0069L10.6811 88.4953L5.1407 89.0905L4.78467 87.0586L4.61958 83.1083L3.79521 80.0155L1.85081 77.5062L0.856628 67.4215L10.9877 66.0291L14.1262 67.2793L15.9429 66.8625L22.8808 66.3067L30.479 66.1679L32.7721 66.3288L37.5776 67.2661L41.1562 69.0531L43.3929 69.2412L48.7609 68.6769L51.5566 69.147L57.5952 69.2412L59.2727 68.7708L60.4271 66.5304Z" fill="#9FA92A" stroke="white" stroke-width="0.267" stroke-miterlimit="3.99999" stroke-linecap="round" stroke-linejoin="round"/>
<path d="M60.4271 66.5303L59.273 68.7708L57.5955 69.2411L51.5569 69.1469L48.7612 68.6769L43.3932 69.2411L41.1564 69.053L37.5779 67.2661L32.7724 66.3287L30.4793 66.1678L22.881 66.3067L15.9432 66.8624L14.1264 67.2792L10.9879 66.029L0.856815 67.4214L0.133545 63.8719L4.61289 62.0914L6.25342 61.303L6.48432 59.4122L10.3309 55.6481L18.0843 55.9368L19.4543 51.0034L22.5222 49.9663L24.0447 47.9944L27.6238 48.0357L30.1917 48.4546L32.186 47.1515L38.8001 47.5594L41.1067 46.2455L45.0031 45.9351L47.4722 46.6418L47.4027 49.2754L49.4012 49.5994L56.2649 53.7155L63.5888 54.0134L63.4848 60.5049L62.5822 63.1611L61.3884 64.1651L60.4271 66.5303Z" fill="#9FA92A" stroke="white" stroke-width="0.267" stroke-miterlimit="3.99999" stroke-linecap="round" stroke-linejoin="round"/>
<path d="M114.55 30.3727L114.364 31.1721L111.895 35.9523L107.28 40.5503L100.775 48.2643L94.3864 50.3135L91.1264 51.0878L87.0177 52.243L83.2776 53.0262L82.076 53.9324L80.4555 53.2866L77.6345 50.928L73.8279 50.2369L70.2533 47.6145L67.1844 46.4258L64.7372 46.5717L63.7495 45.0882L67.087 43.3106L67.5758 40.5508L70.3144 38.8277L70.845 35.0341L72.0218 33.9034L74.6518 34.3271L78.0472 32.7104L78.0865 28.2522L85.3061 25.3213L88.4426 26.115L90.5074 23.8153L92.0137 23.4297L92.3966 26.1467L93.5981 26.3519L94.4184 28.2294L96.2686 28.8607L97.5391 28.6233L97.9773 29.7463L100.345 28.9585L101.537 28.1001L102.789 29.3185L103.322 30.7981L105.056 30.9681L105.758 29.9149L106.995 30.1684L107.016 31.7138L109.683 30.5944L108.507 29.8192L109.304 29.0405L112.579 29.6687L113.235 30.5541L114.55 30.3727Z" fill="#9FA92A" stroke="white" stroke-width="0.267" stroke-miterlimit="3.99999" stroke-linecap="round" stroke-linejoin="round"/>
<path d="M142.102 38.915L143.582 39.0982L144.653 38.8425L127.941 59.1201L125.532 60.5413L121.38 62.394L119.375 62.7008L116.24 63.5908L108.566 65.0973L107.712 63.7697L99.1738 61.7371L94.43 57.784L92.0251 58.5516L90.0008 56.5834L87.4065 57.708L84.4427 55.8985L84.2965 54.94L82.0761 53.9326L83.2778 53.0263L87.0178 52.2431L100.775 48.2645L107.28 40.5505L111.895 35.9524L114.364 31.1723L114.55 30.3728L114.81 30.3117L115.559 30.2227L117.614 32.3708L117.621 33.5201L120.078 34.4841L121.112 34.2471L123.356 32.3821L124.51 32.9632L122.644 34.244L123.295 35.175L125.152 35.4301L127.38 33.982L127.758 35.0157L130.071 34.7007L130.694 33.7021L132.322 35.1955L135.214 36.0546L136.642 36.0953L139.009 37.2314L140.113 36.9268L142.102 38.915Z" fill="#9FA92A" stroke="white" stroke-width="0.267" stroke-miterlimit="3.99999" stroke-linecap="round" stroke-linejoin="round"/>
</svg>
