<svg width="199" height="201" viewBox="0 0 199 201" fill="none" xmlns="http://www.w3.org/2000/svg">
<path d="M80.2665 37.2038L80.8263 34.808L79.8174 33.2205L80.0997 30.2706L86.0428 24.8555L84.2367 22.3556L84.9601 20.9336L86.7507 21.547L90.6396 24.6379L91.2206 29.2343L98.7998 31.1867L106.712 27.045L111.948 30.1003L115.306 30.405L119.108 32.3755L120.867 31.5141L123.581 37.7164L121.101 37.4971L120.538 38.004L122.266 39.4569L125.199 42.025L127.369 43.9848L127.891 46.2149L128.132 48.9519L129.257 49.9318L127.248 50.709L123.873 51.6889L117.083 56.9939L114.53 62.7269L110.091 59.9028L108.347 60.2648L106.406 58.8934L104.511 58.4634L98.8403 59.2844L98.1274 56.3361L105.011 46.6074L98.432 37.8265L90.3363 37.3208L85.449 38.792L80.2665 37.2038Z" fill="#7DCB85" stroke="white" stroke-width="0.267" stroke-miterlimit="3.99999"/>
<path d="M41.2406 154.955L43.3541 156.13L43.5978 157.319L45.9181 159.26L45.7687 160.699L44.5596 160.985L43.0672 159.811L43.2701 157.755L40.4625 156.611L39.881 155.803L41.2406 154.955ZM28.5187 138.975L31.4446 139.619L30.3587 140.772L29.1558 140.234L28.5187 138.975ZM30.6107 114.064L31.7086 113.977L32.4315 114.947L29.418 115.921L28.77 114.857L29.9406 113.656L30.6107 114.064ZM92.718 136.577L96.139 136.335L94.1684 140.406L93.2442 148.715L88.6682 152.231L71.3975 162.488L53.9934 177.586L51.3967 180.033L49.8905 177.345L49.8614 175.778L48.3025 173.518L46.7272 170.025L46.2796 167.608L47.7239 167.089L48.6741 167.632L52.6574 167.665L56.6975 168.042L57.5698 164.547L58.5393 162.879L57.0211 161.439L56.2066 159.597L53.5193 158.892L51.8822 157.464L52.1913 156.86L50.876 152.896L51.9007 152.091L52.7786 150.298L51.3047 149.206L51.3011 147.958L49.1993 147.677L47.76 148.577L46.3589 148.68L46.4244 151.642L45.5974 151.849L43.0112 150.961L41.3774 149.627L40.7727 148.057L38.0123 146.074L37.8733 145.455L40.5243 145.452L41.0999 144.287L40.297 143.232L38.9115 143.329L35.3093 141.745L35.5126 139.428L32.7879 137.804L30.3624 135.55L24.9573 132.931L19.7965 130.047L14.0503 129.61L10.8786 129.87L9.35714 130.644L7.72152 130.136L7.65387 131.07L5.62041 131.552L4.90511 130.182L5.22586 129.237L4.23313 128.758L2.60002 129.504L0.255647 127.064L2.15602 126.92L1.59309 125.77L2.26294 125.07L0.296003 124.44L1.3993 123.577L3.46951 123.108L3.78916 122.18L2.67242 121.42L0.400049 121.912L0.133484 120.692L1.7422 119.673L4.66439 119.129L6.3677 118.071L9.09134 118.824L11.0161 118.007L8.68807 116.971L9.18298 115.808L11.7037 115.707L12.6481 115.248L22.6616 115.902L25.0882 117.038L27.9315 116.506L29.0184 118.254L29.8944 117.246L31.777 116.563L34.6181 117.271L37.5501 117.432L40.6552 119.096L42.7196 121.469L46.2051 121.886L48.4092 120.407L50.5494 119.861L58.534 113.283L61.0279 115.526L65.6649 116.762L71.1101 118.784L74.5684 121.589L77.156 124.308L75.3266 126.148L73.0922 128.143L79.4059 131.412L83.8798 131.831L85.3173 130.75L87.4007 132.033L88.811 134.96L92.718 136.577Z" fill="#7DCB85" stroke="white" stroke-width="0.267" stroke-miterlimit="3.99999" stroke-linecap="round" stroke-linejoin="round"/>
<path d="M124.59 121.045L134.666 122.202L139.084 126.691L139.976 128.447L142.154 129.922L148.991 137.812L148.793 140.881L150.563 144.156L151.992 148.882L153.842 153.268L155.712 155.707L157.112 159.51L159.903 162.777L162.621 164.278L164.458 164.247L165.686 164.749L170.141 164.719L173.3 162.702L177.146 161.073L179.891 160.474L180.703 163.676L182.43 166.999L189.522 171.029L193.236 171.752L196.037 173.352L196.975 175.737L197.593 179.557L198.255 181.351L198.256 183.419L194.723 183.559L193.298 184.051L193.082 183.167L192.281 183.163L191.913 184.069L191.089 185.51L188.785 186.749L185.865 187.308L184.755 188.115L185.034 188.932L184.204 190.226L181.29 191.366L179.649 191.435L178.715 192.296L177.641 194.029L177.666 195.278L176.598 196.04L174.337 195.918L173.826 196.565L171.243 196.772L171.151 194.895L170.825 193.434L169.144 193.339L167.47 193.162L166.139 192.982L166.263 191.304L167.239 190.618L170.612 190.178L168.211 188.376L168.417 186.657L167.847 185.517L169.436 184.762L172.053 184.273L174.402 182.889L178.872 183.958L180.398 183.826L181.071 185.133L184.447 185.656L186.042 185.456L186.328 183.956L183.767 184.441L183.671 183.208L182.074 182.888L181.488 183.794L180.45 183.253L177.158 183.012L174.295 181.948L172.803 183.189L170.838 182.172L165.894 183.821L164.564 186.378L162.551 186.425L159.939 188.506L158.605 188.779L158.149 187.303L156.264 186.695L156.464 184.761L154.149 182.16L152.268 182.354L148.44 180.815L149.103 183.638L148.319 184.592L146.765 184.632L144.271 183.059L143.7 183.898L144.911 184.36L147.506 187.557L146.398 188.853L144.705 188.782L144.788 187.855L142.878 185.817L138.872 184.506L136.07 181.089L134.31 181.481L133.839 180.482L135.806 179.719L138.634 177.618L137.523 176.618L137.396 174.755L134.888 173.338L133.542 173.439L132.874 174.372L133.975 175.525L130.962 177.168L129.682 176.523L129.081 175.18L126.818 176.493L124.116 179.361L122.383 177.775L121.088 175.149L121.386 173.616L120.708 170.852L119.228 169.18L116.689 167.392L116.251 163.203L115.15 163.698L113.477 165.508L113.083 167.655L115.195 171.644L114.867 172.292L112.218 169.878L110.906 167.986L107.144 169.32L107.376 167.46L108.229 165.906L106.803 163.367L104.965 161.503L104.429 160.153L103.082 159.491L103.777 157.524L106.409 156.804L107.636 155.036L106.016 150.844L105.873 145.786L108.041 144.655L108.902 143.156L110.309 142.699L112.141 142.954L112.73 141.265L112.469 139.699L114.409 139.917L116.208 137.899L115.908 135.459L117.08 134.838L118.179 136.624L118.987 136.029L118.039 135.025L117.593 132.105L115.281 133.759L113.776 134.266L113.832 135.058L111.931 134.74L110.134 135.308L105.987 139.896L104.763 140.027L105.832 145.132L104.647 146.034L105.63 149.802L105.045 150.923L105.606 151.75L105.28 153.737L103.38 155.709L101.783 155.542L100.307 156.388L98.5532 156.459L97.934 157.647L101.228 161.914L100.314 163.995L98.2776 164.591L96.442 165.729L95.3154 165.063L94.2754 163.108L92.2114 162.522L90.7095 160.66L89.8855 161.621L93.1957 163.441L94.1255 163.303L94.823 164.66L93.5376 165.707L94.5201 166.837L91.8877 169.56L89.5317 170.529L88.5303 172.542L89.7117 176.049L92.2448 177.434L92.6619 179.066L89.0674 180.283L89.1881 181.606L83.4968 187.123L78.8626 186.369L77.296 186.75L75.8709 188.132L74.4545 188.487L73.1451 190.225L71.9418 190.787L68.4926 190.419L67.3374 190.618L63.3319 189.809L60.9951 190.848L59.6904 193.136L58.4118 192.38L56.6297 192.503L54.7675 191.332L55.5013 189.596L53.7467 187.632L53.618 184.797L52.0842 184.712L51.3994 183.373L52.5078 183.004L51.3966 180.033L72.303 161.786L81.1548 156.504L88.6681 152.23L93.2441 148.715L94.1683 140.406L96.1389 136.335L101.082 132.901L104.954 128.662L110.526 124.794L110.672 122.113L115.732 121.059L117.645 122.136L121.815 122.98L124.59 121.045ZM112.099 136.425L112.661 136.469L113.734 138.447L112.366 138.795L111.679 137.743L112.099 136.425ZM128.38 176.849L129.581 177.411L129.099 178.274L126.917 178.598L126.713 177.743L128.38 176.849ZM132.719 182.031L136.844 185.506L137.135 186.952L131.751 185.589L130.466 183.396L130.612 182.359L132.719 182.031ZM170.268 183.163L171.143 184.025L169.729 184.467L169.001 183.61L170.268 183.163ZM151.012 185.763L154.187 187.359L153.637 187.917L150.49 188.325L150.497 185.792L151.012 185.763ZM142.9 188.539L140.936 187.996L140.789 186.515L142.753 187.47L142.9 188.539ZM86.4642 192.344L87.0977 193.6L90.6843 196.401L94.0821 197.265L94.3817 198.9L93.1857 199.906L90.0825 199.407L88.697 197.699L87.0101 197.521L86.8504 196.605L85.5369 196.069L84.5682 194.692L85.5475 191.619L86.4642 192.344Z" fill="#7DCB85" stroke="white" stroke-width="0.267" stroke-miterlimit="3.99999" stroke-linecap="round" stroke-linejoin="round"/>
<path d="M141.166 66.7724L140.931 68.5685L139.544 69.7977L139.911 71.3963L138.611 75.0289L137.38 75.977L134.988 75.2932L135.654 74.4943L135.704 71.3742L137.31 70.0894L139.133 67.4094L139.122 66.5464L141.166 66.7724ZM167.025 119.548L162.492 120.531L163.543 127.369L164.786 131.085L169.559 135.212L172.476 141.837L176.33 146.021L176.473 149.202L178.7 153.467L179.891 160.474L177.146 161.073L173.3 162.702L170.141 164.719L165.686 164.749L164.458 164.247L162.621 164.278L159.903 162.777L157.112 159.51L155.712 155.708L153.842 153.268L151.992 148.882L150.563 144.156L148.793 140.881L148.933 137.658L149.129 133.715L148.428 130.315L148.612 127.33L146.917 122.758L142.031 120.283L139.583 115.619L136.197 114.941L134.615 112.733L133.177 112.399L134.108 107.87L132.412 105.961L131.033 103.123L130.428 100.228L130.749 94.8773L130.439 90.4352L128.853 79.7104L133.813 79.0599L133.589 85.6858L133.586 87.2746L134.522 88.7292L135.27 88.7537L135.796 91.0281L135.047 92.6065L135.903 93.4393L136.662 97.0246L137.348 97.6014L137.488 99.3027L139.132 100.784L139.962 102.932L140.915 103.052L143.808 105.329L146.608 108.51L146.575 109.492L147.857 109.9L147.394 111.437L149.091 113.633L149.852 116.383L151.382 118.31L152.279 120.225L152.064 121.329L154.541 123.845L154.366 125.527L155.103 126.461L157.578 126.47L158.674 124.864L159.233 122.76L158.052 120.446L158.431 119.498L157.567 118.406L157.492 115.604L156.361 114.848L156.115 112.493L155.356 111.964L156.019 108.687L160.044 105L162.11 104.806L163.787 105.586L165.402 104.996L166.948 108.46L166.966 111.698L167.025 119.548ZM152.411 82.6989L150.599 84.7954L151.073 85.5459L149.146 88.6632L148.24 89.248L147.465 87.5888L147.407 86.0802L145.979 85.3844L149.185 80.3434L151.89 80.4468L152.411 82.6989ZM162.498 99.1444L162.84 100.808L161.742 102.256L162.715 102.711L161.957 103.981L159.759 101.929L158.834 101.91L158.623 99.9258L161.563 100.144L162.498 99.1444Z" fill="#7DCB85" stroke="white" stroke-width="0.267" stroke-miterlimit="3.99999" stroke-linecap="round" stroke-linejoin="round"/>
<path d="M105.003 106.566L106.315 107.002L107.108 108.541L106.162 109.234L104.912 108.234L105.003 106.566ZM84.6916 102.899L86.5134 104.261L86.9745 106.801L84.9552 105.637L83.5519 103.782L84.6916 102.899ZM94.0433 101.756L96.7785 103.544L99.7808 104.179L100.761 106.226L99.2273 107.454L97.2444 106.916L96.8287 106.224L94.4261 105.287L93.6407 103.75L92.2105 102.352L92.7207 101.596L94.0433 101.756ZM111.419 93.4679L109.522 93.5217L106.871 94.6059L106.824 93.9594L111.375 91.8546L111.419 93.4679ZM111.21 90.157L110.738 91.428L108.127 91.9482L109.765 89.7814L111.21 90.157ZM114.441 91.0185L113.392 90.0025L115.457 88.6043L116.898 88.1718L117.251 90.4585L114.441 91.0185ZM119.979 87.591L119.483 86.5026L120.961 86.1652L121.814 86.7414L119.979 87.591ZM118.95 87.9048L117.039 87.3672L117.525 85.7946L119.18 86.457L118.95 87.9048ZM124.567 79.7911L128.853 79.7106L130.439 90.4354L130.749 94.8775L130.43 100.228L131.034 103.123L132.413 105.961L134.109 107.87L133.177 112.399L134.615 112.733L136.197 114.942L139.583 115.619L142.031 120.284L146.917 122.758L148.612 127.33L148.428 130.315L149.129 133.716L148.991 137.812L145.784 134.515L142.154 129.922L139.976 128.448L139.084 126.691L134.666 122.202L124.59 121.045L121.815 122.98L117.645 122.137L115.732 121.059L110.672 122.113L110.526 124.795L104.954 128.662L101.082 132.901L96.139 136.335L92.718 136.577L88.811 134.96L87.4006 132.033L85.3172 130.75L83.8797 131.831L79.4058 131.413L73.0921 128.143L77.156 124.308L74.5683 121.589L71.1101 118.784L65.6648 116.762L61.0278 115.526L58.5339 113.283L66.2219 106.916L71.402 103.705L75.7675 103.324L76.8929 102.404L81.5886 103.555L83.4701 104.411L85.1424 106.15L87.537 107.725L87.7047 109.501L89.0167 109.598L90.4556 107.331L91.6414 107.186L92.2313 110.152L93.3073 109.733L92.909 108.214L93.8174 107.349L96.0716 111.143L97.8836 109.628L99.4233 109.778L100.598 110.583L103.927 108.804L106.724 110.579L107.983 110.138L107.677 107.663L108.041 107.066L113.555 107.873L113.727 106.234L110.962 105.433L110 103.866L111.01 102.835L113.546 102.77L116.78 102.023L118.628 100.931L121.783 101.512L124.238 101.512L124.318 100.79L120.795 100.743L118.801 99.922L117.57 98.1198L119.256 96.1728L118.232 95.2089L116.079 95.982L114.624 95.4725L112.671 93.88L112.79 92.8405L117.925 91.0658L119.349 88.32L120.964 88.0551L122.707 86.1266L122.15 85.2207L119.308 86.2376L117.742 85.5082L116.981 85.822L115.473 87.897L113.211 88.4824L111.492 89.462L109.495 89.1928L107.849 91.0217L106.392 90.896L103.363 92.7784L102.586 91.9487L101.022 92.4784L99.7171 91.807L98.5942 92.5903L96.5676 93.034L95.3265 92.6741L90.5025 92.4539L89.3541 91.4355L87.3214 91.2951L84.4639 91.8107L82.5286 91.6938L81.1813 90.6516L77.9886 91.8394L77.3919 91.0131L74.6024 90.735L72.9994 91.0302L70.7471 92.4337L67.5572 92.6637L64.5648 93.5955L63.4692 94.7779L60.9888 95.9593L59.5572 95.1794L57.4466 95.3005L55.236 93.7133L53.3284 93.1869L51.2218 93.2931L48.4189 94.0626L44.3044 95.9227L41.3312 94.4914L43.7967 91.3489L43.2045 88.166L41.8378 87.6096L43.3623 83.1904L39.2499 79.055L42.7441 75.1902L42.7954 72.7584L40.417 72.421L39.7606 66.0836L41.842 59.6111L39.7755 55.7222L44.9962 53.4285L49.6925 57.1314L57.2651 53.6501L58.9564 51.3207L58.8953 48.3611L61.727 46.7394L65.0488 43.7916L71.531 40.556L74.437 39.8955L77.2193 40.1548L78.0537 38.5862L77.6775 36.7937L80.2665 37.2036L85.4489 38.7918L90.3363 37.3207L98.432 37.8264L105.011 46.6073L98.1274 56.336L98.8402 59.2843L104.511 58.4633L106.406 58.8933L108.347 60.2647L110.091 59.9027L111.843 61.0429L114.53 62.7268L117.733 64.466L119.889 69.4842L116.844 71.4991L115.18 70.7789L116.826 77.4658L121.914 77.4811L122.712 77.9883L124.567 79.7911Z" fill="#7DCB85" stroke="white" stroke-width="0.267" stroke-miterlimit="3.99999" stroke-linecap="round" stroke-linejoin="round"/>
<path d="M80.8263 34.808L80.2665 37.2038L77.6776 36.7938L78.0537 38.5863L77.2194 40.1549L74.437 39.8956L71.531 40.5561L65.0488 43.7917L61.727 46.7395L61.0606 43.9634L55.4179 41.8693L51.66 38.2474L50.3377 36.22L44.9156 34.5559L41.0714 36.1292L36.1796 34.5817L35.8712 31.7029L37.9801 30.8371L34.4909 23.8977L35.4241 21.3949L40.1767 20.8112L48.6176 20.2667L49.7073 15.4026L46.1012 14.5541L47.6955 11.0138L49.129 9.36762L54.1009 9.48843L57.3163 8.2666L55.9007 6.10994L57.6707 0.939226L59.7875 0.133545L62.5685 0.351311L64.7774 1.63483L68.3963 1.7535L69.3153 3.25576L71.0015 3.66282L72.3829 3.15453L74.5579 5.34123L77.5059 6.16024L80.4306 8.82922L81.5499 9.35923L83.5423 11.3799L86.6656 12.7017L87.8296 13.5589L89.6467 13.3824L94.6053 13.6424L96.602 13.988L99.0955 13.4601L99.5093 12.7589L101.458 13.2901L103.702 13.3176L108.484 14.0645L110.201 12.5992L113.57 12.8965L114.871 13.9495L118.874 12.2035L122.17 13.1782L123.209 12.1845L124.677 12.5029L126.598 15.3074L128.961 16.9289L131.568 17.4754L132.968 19.0061L134.982 20.1517L134.221 21.0013L130.416 20.8074L129.067 23.4911L127.663 23.611L127.007 25.1044L129.252 27.518L130.468 28.1373L131.086 29.4364L130.894 30.7818L132.956 33.0973L137.152 37.2377L134.759 38.4579L123.581 37.7164L120.867 31.5141L119.108 32.3755L115.306 30.4049L111.948 30.1003L106.712 27.045L98.7998 31.1866L91.2206 29.2343L90.6396 24.6379L86.7507 21.547L84.96 20.9335L84.2366 22.3556L86.0428 24.8555L80.0996 30.2706L79.8174 33.2205L80.8263 34.808Z" fill="#7DCB85" stroke="white" stroke-width="0.267" stroke-miterlimit="3.99999" stroke-linecap="round" stroke-linejoin="round"/>
<path d="M133.813 79.06L133.2 75.8995L132.291 72.3155L130.984 71.1209L131.211 66.0077L128.881 62.1848L131.893 60.2256L137.745 55.447L138.427 53.1055L136.95 51.0507L138.938 47.6101L141.722 45.173L139.563 42.5447L138.541 40.8244L137.152 37.2375L134.759 38.4577L121.101 37.4969L120.538 38.0038L127.368 43.9846L128.132 48.9518L129.257 49.9317L123.873 51.6887L117.083 56.9938L114.53 62.7267L117.733 64.466L119.889 69.4841L116.844 71.499L115.18 70.7789L116.826 77.4658L121.914 77.4811L124.567 79.791L128.853 79.7106L133.813 79.06Z" fill="#7DCB85" stroke="white" stroke-width="0.267" stroke-miterlimit="3.99999"/>
</svg>
