<svg width="231" height="131" viewBox="0 0 231 131" fill="none" xmlns="http://www.w3.org/2000/svg">
<path d="M77.4998 18.6737L76.2761 19.9903L75.6783 19.3477L77.4998 18.6737ZM75.8016 13.5299L75.6812 14.7795L73.2528 16.0151L71.7594 14.9759L73.6695 13.6366L75.8016 13.5299ZM15.8775 0.133545L18.5011 1.24156L16.8288 2.32729L14.6535 1.55412L14.9964 0.212463L15.8775 0.133545ZM91.4782 11.1224L93.7213 11.8476L96.6434 12.624L100.431 13.0792L100.381 14.7559L101.72 17.5569L103.919 20.5038L102.656 21.6949L104.401 24.0023L103.408 26.9174C102.781 27.5636 102.284 27.7336 101.867 28.5562L101.317 31.2096L100.701 34.745L98.1796 35.1752L94.6251 37.2186L92.5496 38.1575L88.8219 41.4812L85.1209 43.0131L80.074 43.0678L79.7754 44.7823L74.5969 49.0327L74.2059 52.4065L75.2 55.2937L74.8724 58.9078L71.816 59.8271L70.7609 62.8688L66.374 64.8849L64.9721 65.0748L63.1685 65.5202L61.6706 66.4061L59.4404 65.4233L56.2863 64.877L53.6647 64.4727L50.9086 62.9083L45.4574 63.4434L42.2465 61.4913L37.2414 59.619L34.7041 59.9373L33.6785 56.7725L31.9507 55.7563L26.6706 54.2049L20.0718 50.4185L18.3449 47.0963L17.533 43.8945L16.3418 36.8872L14.1146 32.6223L13.9716 29.4412L10.1179 25.2573L7.20043 18.6321L2.42807 14.5051L1.18471 10.7893L0.133545 3.95168L4.66685 2.96885L6.26352 6.76655L5.77917 7.14122L6.18065 9.81234L7.60938 11.4204L6.71411 12.7587L7.84246 14.1148L7.44282 15.0635L10.6741 16.4235L13.0323 16.162L13.0909 13.8778L14.3349 14.3258L15.0145 12.2232L17.4102 11.3137L17.6164 14.4851L16.4713 15.2155L17.7971 17.0691L15.2931 18.1117L15.8313 20.9333L14.7106 24.154L16.8604 24.3549L18.404 25.3608L18.4695 26.7835L17.6797 27.0717L18.5041 30.3068L22.3488 30.9233L22.4055 29.5333L23.7565 30.0584L23.6379 32.017L26.1183 34.3266L28.5117 34.9869L30.1543 34.4119L32.6114 35.2441L34.1587 37.1769L36.6322 36.6075L39.5747 37.1295L42.2188 36.8738L46.7544 37.4461L47.8406 37.9118L53.6225 36.3497L55.5683 36.9965L58.9818 35.7695L62.3902 32.7439L62.7607 30.9817L62.0655 30.8661L64.3647 27.6484L65.6935 26.4942L71.2673 24.9036L72.4285 23.6895L74.5594 23.0389L75.4972 21.5492L73.1412 20.9061L75.1216 19.5818L75.967 20.1513L78.6754 18.9946L79.2023 17.7321L81.9416 16.3902L83.4966 16.3626L85.454 14.6818L85.9053 13.5264L85.8762 11.0476L84.5042 11.2681L84.2558 9.93314L85.6246 8.90504L89.4062 9.22968L91.4782 11.1224Z" fill="#2AA97D" stroke="white" stroke-width="0.267" stroke-miterlimit="3.99999" stroke-linecap="round" stroke-linejoin="round"/>
<path d="M166.088 70.8095L161.154 71.0989L151.527 76.6577L138.546 76.167L117.508 75.6195L115.519 70.4288L112.486 68.725L107.454 68.9801L104.539 69.5896L102.45 68.2402L100.952 65.7565L100.318 63.5967L103.681 61.0772L105.859 58.6902L108.399 57.7698L110.413 56.1928L112.297 55.5675L112.043 53.495L112.014 51.3779L113.149 50.0804L115.417 48.5248L116.033 45.5095L116.169 43.4156L115.946 41.1169L119.613 42.3493L122.203 40.7244L126.237 43.7664L127.345 44.6253L126.21 46.0287L128.045 48.284L131.842 49.2541L134.952 51.1904L133.895 52.184L134.812 56.3039L134.432 59.0788L136.052 61.6741L141.956 61.7187L149.186 64.0788L157.627 67.4578L162.545 68.9468L166.088 70.8095Z" fill="#2AA97D" stroke="white" stroke-width="0.267" stroke-miterlimit="3.99999" stroke-linecap="round" stroke-linejoin="round"/>
<path d="M229.871 22.4889L226.863 24.7379L227.137 26.8986L224.63 28.1997L223.92 30.657L223.336 33.032L223.24 37.4L223.797 41.9495L220.403 44.2332L219.272 45.5564L218.443 47.1995L220.536 48.594L220.554 51.9806L221.424 58.9843L217.845 58.943L216.323 60.9149L213.255 61.952L211.884 66.8855L204.131 66.5968L203.256 63.4236L201.955 62.1271L201.838 58.9665L199.416 55.2093L196.739 53.8448L194.517 52.8656L194.058 49.1633L192.144 47.5341L189.358 44.9682L184.583 42.7369L183.256 41.0636L182.991 39.3901L181.134 35.8199L184.533 31.8475L188.219 30.7297L191.563 26.2761L195.007 26.2106L202.525 27.4341L208.477 27.5592L211.827 26.6403L214.138 25.6908L216.083 22.4214L219.672 17.2876L225 17.7159L230.18 20.0191L229.871 22.4889Z" fill="#2AA97D" stroke="white" stroke-width="0.267" stroke-miterlimit="3.99999" stroke-linecap="round" stroke-linejoin="round"/>
<path d="M194.657 78.3702L195.798 88.6725L197.596 90.9643L198.42 94.057L198.941 100.039L199.339 103.735L199.66 107.635L197.64 110.749L196.721 113.456L195.212 116.284L192.578 116.5L192.494 118.316L191.598 120.723L191.905 122.109L194.041 124.07L193.512 125.061L191.296 127.691L191.56 128.746L193.032 129.966L191.538 130.447L189.691 130.28L188.309 130.865L186.188 130.169L184.617 130.787L183.247 129.244L180.984 128.301L179.871 129.717L178.25 128.806L174.77 126.142L174.299 124.955L172.637 123.749L171.062 124.332L167.74 122.241L166.581 122.114L164.886 123.527L162.818 121.715L160.48 120.998L159.095 121.673L156.946 119.842L157.08 118.765L154.867 118.989L153.59 119.72L151.794 119.833L148.494 117.431L148.062 116.092L144.995 117.715L142.657 118.485L140.06 117.124L140.164 116.051L138.304 115.706L136.567 116.137L134.122 114.621L132.982 114.928L127.936 112.963L124.65 111.945L121.498 109.689L117.772 108.829L116.293 107.578L112.558 105.794L109.831 104.964L108.86 105.745L105.192 105.226L103.813 104.512L97.1568 102.934L96.1015 101.817L92.5833 100.694L91.304 99.7242L87.6 97.9724L86.9182 96.851L84.1894 95.8432L79.2337 95.7031L74.6871 95.9906L72.4322 96.3937L71.3009 95.9686L64.6747 95.0768L59.9212 93.7911L56.6139 93.3241L52.1895 93.1128L48.4604 93.618L46.3509 93.503L40.1887 94.7162L34.1614 91.675L33.2188 91.6903L29.8199 89.9844L28.8621 88.9916L23.0126 86.3787L21.5242 84.1494L17.6875 82.8109L15.8913 82.8353L14.1351 82.1604L12.1958 81.1267L11.4672 79.9867L11.9785 79.3393L14.2391 79.4614L15.3078 78.6994L15.2823 77.4504L16.3561 75.718L17.2906 74.8567L18.931 74.7882L21.8453 73.6478L22.675 72.3541L22.3965 71.5372L23.5064 70.7301L26.4268 70.1708L28.6014 69.071L29.9226 66.5852L30.7234 66.5883L30.9394 67.4725L32.365 66.981L35.8971 66.8412L36.3557 70.4403L36.3411 74.5387L37.6907 76.7975L42.7721 77.202L47.1645 78.4318L50.5459 77.5691L54.1214 79.3183L62.9108 81.0491L64.7261 80.957L66.0821 81.6195L68.0393 81.4671L70.748 80.1603L71.9306 80.8503L74.5549 81.3699L76.7004 81.0897L78.4306 81.9714L84.3121 82.269L86.9997 82.0244L89.5569 83.3948L93.2919 83.1847L95.7004 82.5204L97.9606 83.6186L100.05 82.6139L101.943 82.8904L106.061 85.6869L106.947 83.9061L111.099 84.5229L111.79 85.7294L114.172 85.356L114.948 85.9038L117.018 85.5872L118.355 86.3968L120.859 86.8188L123.144 86.4448L124.062 85.6469L122.243 83.4981L122.141 82.3965L121.056 81.2952L118.696 79.0407L117.508 75.6193L138.45 76.1656L151.526 76.6585L161.154 71.0997L166.088 70.811L170.455 71.0449L173.523 78.5467L181.705 78.7642L184.007 78.6733L194.657 78.3702Z" fill="#2AA97D" stroke="white" stroke-width="0.267" stroke-miterlimit="3.99999" stroke-linecap="round" stroke-linejoin="round"/>
<path d="M191.562 26.2762L188.218 30.7298L184.532 31.8476L181.133 35.8215L182.99 39.3918L183.255 41.0653L184.582 42.7385L189.357 44.9698L194.058 49.1635L194.518 52.8659L199.416 55.2095L201.838 58.9667L201.955 62.1273L203.256 63.4238L204.131 66.597L200.285 70.3611L200.054 72.2519L194.033 74.8921L194.657 78.3703L184.007 78.674L181.705 78.7648L173.523 78.5474L170.455 71.0451L166.088 70.8111L165.889 66.73L165.222 65.1742L164.797 62.6854L161.275 60.3363L160.541 58.793L159.964 56.8088L160.174 55.1775L158.371 52.3213L158.662 48.0138L154.748 46.2201L152.275 42.7029L150.808 40.159L149.201 37.9241L148.878 35.2677L147.974 33.316L145.827 29.743L145.979 27.4352L146.272 26.4556L150.54 26.1702L152.023 25.4164L154.66 25.874L156.492 25.2427L158.264 25.1745L160.003 22.9976L162.583 23.0068L164.551 22.1604L168.361 22.2852L172.223 21.5671L174.981 20.0532L176.86 21.1996L178.903 20.8433L179.857 21.6493L181.522 21.5493L183.04 23.275L183.795 24.3133L185.423 24.0132L191.213 25.4056L191.562 26.2762Z" fill="#2AA97D" stroke="white" stroke-width="0.267" stroke-miterlimit="3.99999" stroke-linecap="round" stroke-linejoin="round"/>
<path d="M104.539 69.5896L103.165 71.8648L99.553 76.391L95.9112 79.3401L95.6028 81.9336L95.7006 82.5194L93.466 83.4288L89.557 83.3951L86.9998 82.0247L84.3122 82.2694L78.4307 81.9718L76.7005 81.0901L74.555 81.3703L71.9307 80.8506L70.7481 80.1607L68.0393 81.4675L66.0822 81.6198L64.7262 80.9574L61.763 80.2564L54.1215 79.3187L50.546 77.5695L47.1646 78.4306L42.7722 77.2008L37.6908 76.7963L36.3412 74.5375L36.3558 70.4392L35.8985 66.84L35.8982 64.7713L34.7053 59.9375L37.2413 59.6192L42.2464 61.4915L45.4573 63.4436L50.9085 62.9084L53.6646 64.4729L56.2862 64.8772L59.4403 65.4235L61.6718 66.4076L63.1684 65.5204L64.9733 65.0763L66.3752 64.8863L70.7621 62.8703L71.8159 59.8272L74.8723 58.9079L75.2 55.2938L74.2058 52.4067L74.5968 49.0329L77.3922 46.667L79.7753 44.7824L80.0739 43.0679L85.1209 43.0132L88.8218 41.4813L92.5496 38.1576L94.625 37.2188L94.8177 39.2332L95.5921 40.5922L97.8993 41.9928L100.246 43.4274L103.21 45.1987L104.291 47.2851L106.539 49.1545L108.639 48.356L112.055 48.6282L113.149 50.0804L112.014 51.3779L112.297 55.5675L110.413 56.1928L108.399 57.7698L105.859 58.6903L103.681 61.0772L100.318 63.5967L100.355 64.4879L100.913 65.7222L102.45 68.2402L104.539 69.5896Z" fill="#2AA97D" stroke="white" stroke-width="0.267" stroke-miterlimit="3.99999" stroke-linecap="round" stroke-linejoin="round"/>
<path d="M145.826 29.7414L147.974 33.3144L148.878 35.2675L149.201 37.924L150.808 40.1588L152.275 42.7013L154.748 46.22L158.661 48.0137L158.37 52.3212L160.174 55.1759L160.541 58.7914L161.275 60.3346L164.796 62.6852L165.889 66.7299L166.088 70.8095L162.545 68.9467L157.627 67.4577L153.339 65.7361L141.956 61.7186L136.052 61.674L134.432 59.0787L134.812 56.3038L133.895 52.1839L134.953 51.1903L131.842 49.254L128.045 48.2839L126.21 46.0287L127.345 44.6252L122.203 40.7243L119.613 42.3492L115.946 41.1168L116.169 43.4155L116.224 45.7482L115.417 48.5247L113.149 50.0802L112.055 48.628L108.639 48.3558L106.539 49.1543L104.291 47.2848L103.21 45.1985L95.592 40.592L94.8176 39.2329L94.6249 37.2185L98.1795 35.1751L100.701 34.7449L101.844 28.2222L103.408 26.9173L104.401 24.0022L102.656 21.6948L103.919 20.5037L101.72 17.5568L100.381 14.7558L100.431 13.0791L102.631 14.7078L105.716 16.554L114.9 17.9686L117.72 19.0089L120.502 19.1787L122.426 20.1337L123.269 22.2547L122.315 26.2639L124.097 28.9764L126.181 29.3877L128.521 28.5288L131.785 26.5243L134.415 26.9119L137.406 24.5436L139.174 24.9649L142.232 24.7438L145.094 23.0131L147.073 25.7048L145.979 27.4351L145.826 29.7414Z" fill="#2AA97D" stroke="white" stroke-width="0.267" stroke-miterlimit="3.99999" stroke-linecap="round" stroke-linejoin="round"/>
<path d="M117.508 75.6196L118.697 79.041L121.057 81.2944L122.141 82.3957L122.243 83.4973L124.062 85.646L123.144 86.4439L120.859 86.818L118.355 86.3959L117.018 85.5864L114.948 85.903L114.172 85.3552L111.79 85.7286L111.099 84.5221L106.947 83.9052L106.061 85.6861L101.943 82.8896L100.05 82.6131L97.9607 83.6177L95.7006 82.5194L95.6028 81.9323L95.9112 79.3389L99.553 76.3909L101.542 73.3508L104.539 69.5883L107.454 68.9802L112.486 68.7251L115.519 70.4275L117.508 75.6196Z" fill="#2AA97D" stroke="white" stroke-width="0.267" stroke-miterlimit="3.99999" stroke-linecap="round" stroke-linejoin="round"/>
</svg>
